# xmcd
#
# Track frame offsets:
#	150
#	26377
#	51837
#	81211
#	110902
#	142238
#	188620
#	224156
#	253768
#	287757
#
# Disc length: 4286 seconds
#
# Revision: 2
# Processed by: cddbd v1.5.2PL0 Copyright (c) Steve Scherf et al.
# Submitted via: audiograbber 1.83.01
#
DISCID=9e10bc0a
DTITLE=CD Pool - Club Beats 805 CD1
DYEAR=2005
DGENRE=Dance
TTITLE0=The Music - Bleed From Within (Thin White Duke Mix)
TTITLE1=Porno - Music Power (Vocal Mix)
TTITLE2=Studio B - I See Girls (Tom Neville Dub Mix)
TTITLE3=Falko Niestolik - Soulshaker (Chris Van Gavin Remix)
TTITLE4=Brad Holland - Crazy
TTITLE5=T.M.L. Ft Belle - Have A Good Time (Original Version)
TTITLE6=Sugar Caine Presents Bionik Phunk - Once In A Lifetime (Playmaker Remix
TTITLE6=)
TTITLE7=Andy F - Too Many People (Original)
TTITLE8=Sumatra - Reincarnation (Flutlicht Remix)
TTITLE9=Chris Hoff, MDA and Spherical Ft Jennie Rix - Controllin' Me
EXTD=
EXTT0=
EXTT1=
EXTT2=
EXTT3=
EXTT4=
EXTT5=
EXTT6=
EXTT7=
EXTT8=
EXTT9=
PLAYORDER=
